<svg id="library" viewBox="0 0 56 53" xmlns="http://www.w3.org/2000/svg">
	<path d="m45 34h-5v2 5h5z"/>
	<path d="m38 33v-27h-12v29h12zm-3-18h-6c-.5522847 0-1-.4477153-1-1s.4477153-1 1-1h6c.5522847 0 1 .4477153 1 1s-.4477153 1-1 1zm0-4h-6c-.5522847 0-1-.4477153-1-1 0-.55228475.4477153-1 1-1h6c.5522847 0 1 .44771525 1 1 0 .5522847-.4477153 1-1 1z"/>
	<path d="m45 31v-11h-5v12h5z"/>
	<path d="m38 1c0-.55228475-.4477153-1-1-1h-10c-.5522847 0-1 .44771525-1 1v3h12z"/>
	<path d="m45 15v-3c0-.5522847-.4477153-1-1-1h-3c-.5522847 0-1 .4477153-1 1v6h5z"/>
	<path d="m52 16h-5v3 11h5z"/>
	<path d="m52 6c0-.55228475-.4477153-1-1-1h-3c-.5522847 0-1 .44771525-1 1v8h5z"/>
	<path d="m52 32h-5v1 8h5z"/>
	<path d="m26 37h12v4h-12z"/>
	<path d="m4 52c0 .5522847.44771525 1 1 1h4c.55228475 0 1-.4477153 1-1v-3h-6z"/>
	<path d="m3.043 40.189 2.9.776c.25633883.0690266.52960477.0332935.75957594-.0993245.22997118-.1326179.39777245-.351236.46642406-.6076755l2.071-7.727-4.834-1.294-2.07 7.727c-.06872393.2562003-.03284136.5292086.09975167.758949.13259304.2297404.35103175.3973878.60724833.466051z"/>
	<path d="m13.377 17.076-4.829-1.294-1.258 4.696-2.366 8.827 4.83 1.294z"/>
	<path d="m55 43h-54c-.55228475 0-1 .4477153-1 1v2c0 .5522847.44771525 1 1 1h54c.5522847 0 1-.4477153 1-1v-2c0-.5522847-.4477153-1-1-1z"/>
	<path d="m46 52c0 .5522847.4477153 1 1 1h4c.5522847 0 1-.4477153 1-1v-3h-6z"/>
	<path d="m15.966 7.417c.0687239-.2562003.0328414-.52920862-.0997517-.75894903-.132593-.22974041-.3510317-.39738776-.6072483-.46605097l-2.9-.776c-.5331923-.14247318-1.0810004.17394862-1.224.707l-2.07 7.727 4.83 1.295z"/>
	<path d="m24 9c0-.55228475-.4477153-1-1-1h-4c-.5522847 0-1 .44771525-1 1v2h6z"/>
	<path d="m18 13h6v23h-6z"/>
	<path d="m18 38h6v3h-6z"/>
</svg>